{
  "accessors": [
    {
      "bufferView": 2,
      "componentType": 5126,
      "count": 33451,
      "max": [
        6.79576301574707,
        0.4773539900779724,
        8.655357360839844
      ],
      "min": [
        -8.819403648376465,
        -22.156116485595703,
        -7.933970928192139
      ],
      "type": "VEC3"
    },
    {
      "bufferView": 2,
      "byteOffset": 401412,
      "componentType": 5126,
      "count": 33451,
      "max": [
        0.9999986290931702,
        0.9995724558830261,
        0.9999899864196777
      ],
      "min": [
        -0.9999744892120361,
        -0.9997467398643494,
        -0.999976634979248
      ],
      "type": "VEC3"
    },
    {
      "bufferView": 1,
      "componentType": 5126,
      "count": 33451,
      "max": [
        0.9992679953575134,
        0.9992660284042358
      ],
      "min": [
        0.0007319999858736992,
        0.0007340000011026859
      ],
      "type": "VEC2"
    },
    {
      "bufferView": 0,
      "componentType": 5125,
      "count": 177735,
      "type": "SCALAR"
    }
  ],
  "asset": {
    "extras": {
      "author": "Carriage Way Cemetery (https://sketchfab.com/knowmatt)",
      "license": "CC-BY-4.0 (http://creativecommons.org/licenses/by/4.0/)",
      "source": "https://sketchfab.com/3d-models/sitty-stone-baby-series-8edbaf072be14514a627777a64a18b13",
      "title": "Sitty-Stone Baby Series"
    },
    "generator": "Sketchfab-12.68.0",
    "version": "2.0"
  },
  "bufferViews": [
    {
      "buffer": 0,
      "byteLength": 710940,
      "name": "floatBufferViews",
      "target": 34963
    },
    {
      "buffer": 0,
      "byteLength": 267608,
      "byteOffset": 710940,
      "byteStride": 8,
      "name": "floatBufferViews",
      "target": 34962
    },
    {
      "buffer": 0,
      "byteLength": 802824,
      "byteOffset": 978548,
      "byteStride": 12,
      "name": "floatBufferViews",
      "target": 34962
    }
  ],
  "buffers": [
    {
      "byteLength": 1781372,
      "uri": "scene.bin"
    }
  ],
  "extensionsUsed": [
    "KHR_materials_unlit"
  ],
  "images": [
    {
      "uri": "textures/Material_0_baseColor.jpeg"
    }
  ],
  "materials": [
    {
      "doubleSided": true,
      "extensions": {
        "KHR_materials_unlit": {}
      },
      "name": "Material_0",
      "pbrMetallicRoughness": {
        "baseColorTexture": {
          "index": 0
        },
        "metallicFactor": 0.0
      }
    }
  ],
  "meshes": [
    {
      "name": "Object_0",
      "primitives": [
        {
          "attributes": {
            "NORMAL": 1,
            "POSITION": 0,
            "TEXCOORD_0": 2
          },
          "indices": 3,
          "material": 0,
          "mode": 4
        }
      ]
    }
  ],
  "nodes": [
    {
      "children": [
        1
      ],
      "matrix": [
        1.0,
        0.0,
        0.0,
        0.0,
        0.0,
        -1.0,
        0.0,
        0.0,
        0.0,
        0.0,
        -1.0,
        0.0,
        0.0,
        -10.47865962982178,
        11.200061798095701,
        1.0
      ],
      "name": "Sketchfab_model"
    },
    {
      "children": [
        2
      ],
      "name": "5ed3fb5fdaa25634519e0270.obj.cleaner.materialmerger.gles"
    },
    {
      "mesh": 0,
      "name": "Object_2"
    }
  ],
  "samplers": [
    {
      "magFilter": 9729,
      "minFilter": 9987,
      "wrapS": 10497,
      "wrapT": 10497
    }
  ],
  "scene": 0,
  "scenes": [
    {
      "name": "Sketchfab_Scene",
      "nodes": [
        0
      ]
    }
  ],
  "textures": [
    {
      "sampler": 0,
      "source": 0
    }
  ]
}
