{
  "accessors": [
    {
      "bufferView": 2,
      "componentType": 5126,
      "count": 3342,
      "max": [
        361.134033203125,
        133.2197265625,
        63.02729797363281
      ],
      "min": [
        -361.134033203125,
        -133.2197265625,
        -63.02729797363281
      ],
      "type": "VEC3"
    },
    {
      "bufferView": 2,
      "byteOffset": 40104,
      "componentType": 5126,
      "count": 3342,
      "max": [
        0.9979039430618286,
        1.0,
        0.9999960660934448
      ],
      "min": [
        -0.9979137182235718,
        -1.0,
        -0.999995768070221
      ],
      "type": "VEC3"
    },
    {
      "bufferView": 3,
      "componentType": 5126,
      "count": 3342,
      "max": [
        1.0,
        0.9999953508377075,
        1.0,
        1.0
      ],
      "min": [
        -0.9915871024131775,
        -0.9999954104423523,
        -1.0,
        -1.0
      ],
      "type": "VEC4"
    },
    {
      "bufferView": 1,
      "componentType": 5126,
      "count": 3342,
      "max": [
        0.9963967800140381,
        0.9990085959434509
      ],
      "min": [
        0.0009914238471537828,
        0.0009914636611938477
      ],
      "type": "VEC2"
    },
    {
      "bufferView": 0,
      "componentType": 5125,
      "count": 13284,
      "type": "SCALAR"
    }
  ],
  "asset": {
    "extras": {
      "author": "Mehdi Shahsavan (https://sketchfab.com/ahmagh2e)",
      "license": "CC-BY-4.0 (http://creativecommons.org/licenses/by/4.0/)",
      "source": "https://sketchfab.com/3d-models/secretary-desk-20mb-37151a4623c24fc498593f56ec0cbb34",
      "title": "Secretary Desk - 20MB"
    },
    "generator": "Sketchfab-16.15.0",
    "version": "2.0"
  },
  "bufferViews": [
    {
      "buffer": 0,
      "byteLength": 53136,
      "name": "floatBufferViews",
      "target": 34963
    },
    {
      "buffer": 0,
      "byteLength": 26736,
      "byteOffset": 53136,
      "byteStride": 8,
      "name": "floatBufferViews",
      "target": 34962
    },
    {
      "buffer": 0,
      "byteLength": 80208,
      "byteOffset": 79872,
      "byteStride": 12,
      "name": "floatBufferViews",
      "target": 34962
    },
    {
      "buffer": 0,
      "byteLength": 53472,
      "byteOffset": 160080,
      "byteStride": 16,
      "name": "floatBufferViews",
      "target": 34962
    }
  ],
  "buffers": [
    {
      "byteLength": 213552,
      "uri": "scene.bin"
    }
  ],
  "images": [
    {
      "uri": "textures/Scene_-_Root_baseColor.png"
    },
    {
      "uri": "textures/Scene_-_Root_metallicRoughness.png"
    },
    {
      "uri": "textures/Scene_-_Root_normal.png"
    }
  ],
  "materials": [
    {
      "doubleSided": true,
      "name": "Scene_-_Root",
      "normalTexture": {
        "index": 2
      },
      "pbrMetallicRoughness": {
        "baseColorTexture": {
          "index": 0
        },
        "metallicFactor": 0.0,
        "metallicRoughnessTexture": {
          "index": 1
        }
      }
    }
  ],
  "meshes": [
    {
      "name": "Secretary_desk__0",
      "primitives": [
        {
          "attributes": {
            "NORMAL": 1,
            "POSITION": 0,
            "TANGENT": 2,
            "TEXCOORD_0": 3
          },
          "indices": 4,
          "material": 0,
          "mode": 4
        }
      ]
    }
  ],
  "nodes": [
    {
      "children": [
        1
      ],
      "matrix": [
        1.0,
        0.0,
        0.0,
        0.0,
        0.0,
        2.220446049250313e-16,
        -1.0,
        0.0,
        0.0,
        1.0,
        2.220446049250313e-16,
        0.0,
        0.0,
        0.0,
        0.0,
        1.0
      ],
      "name": "Sketchfab_model"
    },
    {
      "children": [
        2
      ],
      "matrix": [
        0.009999999776482582,
        0.0,
        0.0,
        0.0,
        0.0,
        0.0,
        0.009999999776482582,
        0.0,
        0.0,
        -0.009999999776482582,
        0.0,
        0.0,
        0.0,
        0.0,
        0.0,
        1.0
      ],
      "name": "7f834220b98a4b11a54ff8c1a8a8c3ac.fbx"
    },
    {
      "children": [
        3,
        5
      ],
      "name": "RootNode"
    },
    {
      "children": [
        4
      ],
      "matrix": [
        0.461817785201466,
        -0.40694246741602075,
        -0.7881130385198393,
        0.0,
        0.2057392184115125,
        0.9134537909568063,
        -0.3511033263785165,
        0.0,
        0.8627836966928807,
        2.7755575615628914e-17,
        0.5055732318081796,
        0.0,
        -329.1448974609375,
        250.62576293945313,
        94.64105224609375,
        1.0
      ],
      "name": "CINEMA_4D_Editor"
    },
    {
      "name": "Object_4"
    },
    {
      "children": [
        6
      ],
      "matrix": [
        1.0,
        0.0,
        0.0,
        0.0,
        0.0,
        -1.1102230246251565e-15,
        -1.0,
        0.0,
        0.0,
        1.0,
        -1.1102230246251565e-15,
        0.0,
        0.0,
        63.02729797363281,
        0.0,
        1.0
      ],
      "name": "Secretary_desk"
    },
    {
      "mesh": 0,
      "name": "Secretary_desk__0"
    }
  ],
  "samplers": [
    {
      "magFilter": 9729,
      "minFilter": 9987,
      "wrapS": 10497,
      "wrapT": 10497
    }
  ],
  "scene": 0,
  "scenes": [
    {
      "name": "Sketchfab_Scene",
      "nodes": [
        0
      ]
    }
  ],
  "textures": [
    {
      "sampler": 0,
      "source": 0
    },
    {
      "sampler": 0,
      "source": 1
    },
    {
      "sampler": 0,
      "source": 2
    }
  ]
}
