{
  "accessors": [
    {
      "bufferView": 2,
      "componentType": 5126,
      "count": 1281,
      "max": [
        35.27523422241211,
        21.210439682006836,
        39.969661712646484
      ],
      "min": [
        -0.8058946132659912,
        -0.8058929443359375,
        0.0
      ],
      "type": "VEC3"
    },
    {
      "bufferView": 2,
      "byteOffset": 15372,
      "componentType": 5126,
      "count": 1281,
      "max": [
        1.0,
        1.0,
        1.0
      ],
      "min": [
        -1.0,
        -1.0,
        -1.0
      ],
      "type": "VEC3"
    },
    {
      "bufferView": 1,
      "componentType": 5126,
      "count": 1281,
      "max": [
        0.9998387694358826,
        0.9958217144012451
      ],
      "min": [
        0.0014756801538169384,
        0.0019558025524020195
      ],
      "type": "VEC2"
    },
    {
      "bufferView": 0,
      "componentType": 5125,
      "count": 4200,
      "type": "SCALAR"
    },
    {
      "bufferView": 2,
      "byteOffset": 30744,
      "componentType": 5126,
      "count": 24,
      "max": [
        9.381217002868652,
        16.42877769470215,
        0.75
      ],
      "min": [
        -9.381223678588867,
        -16.42877769470215,
        -0.7930736541748047
      ],
      "type": "VEC3"
    },
    {
      "bufferView": 2,
      "byteOffset": 31032,
      "componentType": 5126,
      "count": 24,
      "max": [
        1.0,
        1.0,
        1.0
      ],
      "min": [
        -1.0,
        -1.0,
        -1.0
      ],
      "type": "VEC3"
    },
    {
      "bufferView": 1,
      "byteOffset": 10248,
      "componentType": 5126,
      "count": 24,
      "max": [
        0.4815940856933594,
        0.711275577545166
      ],
      "min": [
        0.0015113684348762035,
        0.005287263076752424
      ],
      "type": "VEC2"
    },
    {
      "bufferView": 0,
      "byteOffset": 16800,
      "componentType": 5125,
      "count": 36,
      "type": "SCALAR"
    },
    {
      "bufferView": 2,
      "byteOffset": 31320,
      "componentType": 5126,
      "count": 24,
      "max": [
        9.381216049194336,
        16.428775787353516,
        2.197662115097046
      ],
      "min": [
        -9.381223678588867,
        -16.428775787353516,
        -0.7930735945701599
      ],
      "type": "VEC3"
    },
    {
      "bufferView": 2,
      "byteOffset": 31608,
      "componentType": 5126,
      "count": 24,
      "max": [
        1.0,
        1.0,
        1.0
      ],
      "min": [
        -1.0,
        -1.0,
        -1.0
      ],
      "type": "VEC3"
    },
    {
      "bufferView": 1,
      "byteOffset": 10440,
      "componentType": 5126,
      "count": 24,
      "max": [
        0.6447314620018005,
        0.500238835811615
      ],
      "min": [
        0.19379889965057373,
        0.00328897126019001
      ],
      "type": "VEC2"
    },
    {
      "bufferView": 0,
      "byteOffset": 16944,
      "componentType": 5125,
      "count": 36,
      "type": "SCALAR"
    },
    {
      "bufferView": 2,
      "byteOffset": 31896,
      "componentType": 5126,
      "count": 70,
      "max": [
        7.075047016143799,
        3.671046495437622,
        2.022461414337158
      ],
      "min": [
        -7.055790424346924,
        -3.6213228702545166,
        -0.10791581124067307
      ],
      "type": "VEC3"
    },
    {
      "bufferView": 2,
      "byteOffset": 32736,
      "componentType": 5126,
      "count": 70,
      "max": [
        0.9972295165061951,
        0.9240056872367859,
        0.9881484508514404
      ],
      "min": [
        -0.9487283229827881,
        -0.9999182224273682,
        -0.9714382886886597
      ],
      "type": "VEC3"
    },
    {
      "bufferView": 1,
      "byteOffset": 10632,
      "componentType": 5126,
      "count": 70,
      "max": [
        0.8457046747207642,
        0.22998115420341492
      ],
      "min": [
        0.6588146090507507,
        0.011234579607844353
      ],
      "type": "VEC2"
    },
    {
      "bufferView": 0,
      "byteOffset": 17088,
      "componentType": 5125,
      "count": 318,
      "type": "SCALAR"
    },
    {
      "bufferView": 2,
      "byteOffset": 33576,
      "componentType": 5126,
      "count": 15,
      "max": [
        8.444761276245117,
        9.086763381958008,
        2.6098599433898926
      ],
      "min": [
        -8.503789901733398,
        -13.668994903564453,
        0.7844409346580505
      ],
      "type": "VEC3"
    },
    {
      "bufferView": 2,
      "byteOffset": 33756,
      "componentType": 5126,
      "count": 15,
      "max": [
        0.1436602920293808,
        -0.014476374723017216,
        0.9998819828033447
      ],
      "min": [
        -0.061240263283252716,
        -0.48536983132362366,
        0.8721615672111511
      ],
      "type": "VEC3"
    },
    {
      "bufferView": 1,
      "byteOffset": 11192,
      "componentType": 5126,
      "count": 15,
      "max": [
        0.672328770160675,
        0.9914187788963318
      ],
      "min": [
        0.4732294976711273,
        0.7234225273132324
      ],
      "type": "VEC2"
    },
    {
      "bufferView": 0,
      "byteOffset": 18360,
      "componentType": 5125,
      "count": 48,
      "type": "SCALAR"
    }
  ],
  "asset": {
    "extras": {
      "author": "Jan_Strydom (https://sketchfab.com/JanStrydom)",
      "license": "CC-BY-4.0 (http://creativecommons.org/licenses/by/4.0/)",
      "source": "https://sketchfab.com/3d-models/ps1-horror-hospital-crib-c5204a4bca7c47f79c729164aa86c737",
      "title": "PS1 Horror Hospital Crib"
    },
    "generator": "Sketchfab-16.9.0",
    "version": "2.0"
  },
  "bufferViews": [
    {
      "buffer": 0,
      "byteLength": 18552,
      "name": "floatBufferViews",
      "target": 34963
    },
    {
      "buffer": 0,
      "byteLength": 11312,
      "byteOffset": 18552,
      "byteStride": 8,
      "name": "floatBufferViews",
      "target": 34962
    },
    {
      "buffer": 0,
      "byteLength": 33936,
      "byteOffset": 29864,
      "byteStride": 12,
      "name": "floatBufferViews",
      "target": 34962
    }
  ],
  "buffers": [
    {
      "byteLength": 63800,
      "uri": "scene.bin"
    }
  ],
  "extensionsUsed": [
    "KHR_materials_unlit"
  ],
  "images": [
    {
      "uri": "textures/Crib_baseColor.png"
    }
  ],
  "materials": [
    {
      "doubleSided": true,
      "extensions": {
        "KHR_materials_unlit": {}
      },
      "name": "Crib",
      "pbrMetallicRoughness": {
        "baseColorTexture": {
          "index": 0
        },
        "metallicFactor": 0.0
      }
    }
  ],
  "meshes": [
    {
      "name": "Cage_Crib_0",
      "primitives": [
        {
          "attributes": {
            "NORMAL": 1,
            "POSITION": 0,
            "TEXCOORD_0": 2
          },
          "indices": 3,
          "material": 0,
          "mode": 4
        }
      ]
    },
    {
      "name": "Bottom_Crib_0",
      "primitives": [
        {
          "attributes": {
            "NORMAL": 5,
            "POSITION": 4,
            "TEXCOORD_0": 6
          },
          "indices": 7,
          "material": 0,
          "mode": 4
        }
      ]
    },
    {
      "name": "Mattress_Crib_0",
      "primitives": [
        {
          "attributes": {
            "NORMAL": 9,
            "POSITION": 8,
            "TEXCOORD_0": 10
          },
          "indices": 11,
          "material": 0,
          "mode": 4
        }
      ]
    },
    {
      "name": "Pillow_low_Crib_0",
      "primitives": [
        {
          "attributes": {
            "NORMAL": 13,
            "POSITION": 12,
            "TEXCOORD_0": 14
          },
          "indices": 15,
          "material": 0,
          "mode": 4
        }
      ]
    },
    {
      "name": "Blanket_low_Crib_0",
      "primitives": [
        {
          "attributes": {
            "NORMAL": 17,
            "POSITION": 16,
            "TEXCOORD_0": 18
          },
          "indices": 19,
          "material": 0,
          "mode": 4
        }
      ]
    }
  ],
  "nodes": [
    {
      "children": [
        1
      ],
      "matrix": [
        1.0,
        0.0,
        0.0,
        0.0,
        0.0,
        2.220446049250313e-16,
        -1.0,
        0.0,
        0.0,
        1.0,
        2.220446049250313e-16,
        0.0,
        0.0,
        0.0,
        0.0,
        1.0
      ],
      "name": "Sketchfab_model"
    },
    {
      "children": [
        2
      ],
      "matrix": [
        0.02539999969303608,
        0.0,
        0.0,
        0.0,
        0.0,
        0.0,
        0.02539999969303608,
        0.0,
        0.0,
        -0.02539999969303608,
        0.0,
        0.0,
        0.0,
        0.0,
        0.0,
        1.0
      ],
      "name": "49f9066ba4d04ecfa8a6a29971ebdec6.fbx"
    },
    {
      "children": [
        3,
        6,
        8,
        10,
        12
      ],
      "name": "RootNode"
    },
    {
      "children": [
        4
      ],
      "matrix": [
        1.6292068394374581e-07,
        -5.551115123125783e-17,
        0.9999999999999867,
        0.0,
        0.9999999999999867,
        2.220446049250313e-16,
        -1.6292068388823466e-07,
        0.0,
        -1.6653345369377348e-16,
        1.0,
        1.1102230246251565e-16,
        0.0,
        0.013010978698730469,
        39.961708068847656,
        -17.235095977783203,
        1.0
      ],
      "name": "Cage"
    },
    {
      "children": [
        5
      ],
      "matrix": [
        1.0,
        0.0,
        -0.0,
        0.0,
        0.0,
        1.0,
        0.0,
        0.0,
        0.0,
        0.0,
        1.0,
        0.0,
        -2.15253589885833e-06,
        -10.2022733688354,
        -39.9580154418945,
        1.0
      ],
      "name": "Object_4"
    },
    {
      "mesh": 0,
      "name": "Cage_Crib_0"
    },
    {
      "children": [
        7
      ],
      "matrix": [
        1.0,
        0.0,
        0.0,
        0.0,
        0.0,
        2.220446049250313e-16,
        -1.0,
        0.0,
        0.0,
        1.0,
        2.220446049250313e-16,
        0.0,
        0.013010978698730469,
        17.159221649169922,
        -0.0004291534423828125,
        1.0
      ],
      "name": "Bottom"
    },
    {
      "mesh": 1,
      "name": "Bottom_Crib_0"
    },
    {
      "children": [
        9
      ],
      "matrix": [
        0.9671379923820496,
        0.0,
        0.0,
        0.0,
        0.0,
        2.1702128926622948e-16,
        -0.9773769974708557,
        0.0,
        0.0,
        1.0,
        2.220446049250313e-16,
        0.0,
        0.013010978698730469,
        18.710731506347656,
        -0.0004290856304578483,
        1.0
      ],
      "name": "Mattress"
    },
    {
      "mesh": 2,
      "name": "Mattress_Crib_0"
    },
    {
      "children": [
        11
      ],
      "matrix": [
        1.0,
        0.0,
        0.0,
        0.0,
        0.0,
        2.220446049250313e-16,
        -1.0,
        0.0,
        0.0,
        1.0,
        2.220446049250313e-16,
        0.0,
        -0.10572195053100586,
        20.540699005126953,
        -11.936197280883789,
        1.0
      ],
      "name": "Pillow_low"
    },
    {
      "mesh": 3,
      "name": "Pillow_low_Crib_0"
    },
    {
      "children": [
        13
      ],
      "matrix": [
        1.0280859470367432,
        0.0,
        0.0,
        0.0,
        0.0,
        2.1597856523837984e-16,
        -0.9726809859275818,
        0.0,
        0.0,
        0.9726809859275818,
        2.1597856523837984e-16,
        0.0,
        0.013010978698730469,
        20.604862213134766,
        -0.38309669494628906,
        1.0
      ],
      "name": "Blanket_low"
    },
    {
      "mesh": 4,
      "name": "Blanket_low_Crib_0"
    }
  ],
  "samplers": [
    {
      "magFilter": 9729,
      "minFilter": 9987,
      "wrapS": 10497,
      "wrapT": 10497
    }
  ],
  "scene": 0,
  "scenes": [
    {
      "name": "Sketchfab_Scene",
      "nodes": [
        0
      ]
    }
  ],
  "textures": [
    {
      "sampler": 0,
      "source": 0
    }
  ]
}
